<svg xmlns="http://www.w3.org/2000/svg" viewBox="0 0 1600 900" fill="none" stroke="#0f2548" stroke-opacity="0.07" stroke-width="1.5" stroke-linecap="round"><path d="M550 900A250 250 0 0 1 1050 900M541 900A259 259 0 0 1 1059 900M470 900A330 330 0 0 1 1130 900M461 900A339 339 0 0 1 1139 900M390 900A410 410 0 0 1 1210 900M381 900A419 419 0 0 1 1219 900M310 900A490 490 0 0 1 1290 900M301 900A499 499 0 0 1 1299 900M200 900A600 600 0 0 1 1400 900M40 900A760 760 0 0 1 1560 900M1046 820L1371 715M995 730L1253 506M918 669L1072 365M800 641L800 300M682 669L528 365M605 730L347 506M554 820L229 715"/><path stroke-width="1" d="M1043 862L1060 859M1038 836L1054 832M1006 766L1021 757M991 745L1004 734M934 694L943 679M912 681L919 666M838 657L841 640M813 654L814 637M736 662L732 646M712 670L706 654M645 709L634 696M626 726L614 714M581 788L566 781M570 812L554 806M1115 817L1132 813M1108 792L1124 787M1054 696L1068 685M1037 677L1050 665M949 610L957 595M926 599L933 584M819 575L820 558M793 574L792 557M685 595L679 579M661 605L654 590M571 668L559 656M553 687L540 676M496 782L480 776M488 806L472 801M1181 760L1197 754M1171 736L1187 729M1091 617L1103 605M1073 599L1084 586M951 523L957 507M927 514L932 498M785 494L784 477M759 496L757 479M621 536L613 520M598 548L590 533M488 640L475 629M472 660L459 650M409 789L393 785M403 814L387 811M1239 691L1254 684M1227 668L1242 660M1116 531L1127 518M1096 514L1106 501M938 434L943 418M913 427L917 411M737 418L735 401M711 422L708 405M546 485L537 471M525 500L515 486M400 625L386 615M385 646L371 637"/></svg>